<svg width="80" height="109" viewBox="0 0 80 109" fill="none" xmlns="http://www.w3.org/2000/svg">
<path fill-rule="evenodd" clip-rule="evenodd" d="M55.5339 33.0852C55.148 33.7461 53.5657 33.4943 54.1431 34.9098C54.1827 35.0092 54.0286 35.306 53.923 35.3302C52.621 35.6347 52.5171 36.9122 51.9604 37.7849C50.8694 39.4991 49.9501 41.3211 48.8759 43.0472C47.7907 44.7906 46.9777 46.6729 45.4353 48.1814C44.327 49.2648 43.6337 50.852 42.9971 52.3187C42.3165 53.8895 40.7727 54.7732 40.1024 56.2777C39.1777 58.3573 37.1674 59.6625 36.3156 61.7746C36.2845 61.8526 36.2497 61.9446 36.1867 61.9922C34.1844 63.5133 32.998 65.7642 31.2508 67.5155C30.5954 68.1728 29.5666 68.5715 29.5764 69.7379C30.0356 70.3576 30.766 70.0819 31.3363 70.2851C33.0689 70.9018 34.9254 71.1621 36.554 72.0765C37.5365 71.4463 38.1298 72.6587 39.1073 72.6195C39.931 72.5874 40.9966 72.9612 41.8091 73.4131C42.6228 73.8667 43.6533 73.4744 44.3255 74.2236C45.6367 73.808 46.5076 75.0006 47.758 75.1459C49.9942 75.4056 52.1852 76.1672 54.4279 76.6117C55.728 76.8687 56.7916 76.6992 57.7006 76.4632C58.7188 75.3417 58.7675 74.1466 58.7514 73.0714C58.7078 70.1266 58.6535 67.1573 58.2469 64.2476C57.6098 59.6949 57.2571 55.122 56.8712 50.5505C56.555 46.8103 56.3338 43.0624 56.0899 39.3165C55.9535 37.2343 56.16 35.1237 55.5339 33.0852ZM51.5249 84.8348C50.7479 85.0437 50.0918 85.2188 49.4364 85.3944C49.4118 85.3177 49.388 85.2393 49.3634 85.1626C49.3122 85.0123 49.2353 84.7254 49.212 84.7303C46.9504 85.1306 45.2622 82.854 42.9582 83.3819C42.8111 83.0469 42.7755 82.4271 42.3142 82.4981C41.457 82.6294 40.8446 82.5291 40.5857 81.6111C40.5385 81.4427 40.3738 81.3714 40.2247 81.5364C39.4135 82.4335 38.8237 81.8236 38.0382 81.4089C37.309 81.0256 36.3552 81.0946 35.5189 80.8855C33.2797 80.3267 31.2311 79.1148 28.9075 78.8683C28.1592 78.7887 28.3607 77.5847 27.2725 77.8176C26.7679 77.9261 25.8556 77.9307 25.2099 77.3392C24.6942 76.8679 23.8576 77.0682 23.1532 76.7779C21.8695 76.248 20.4767 76.4203 19.3376 77.4245C19.2939 77.2613 19.2501 77.0981 19.2067 76.9362C18.1751 76.7275 17.6902 77.0522 18.0116 78.1624C17.6832 78.2498 17.3555 78.3376 17.0248 78.4269C16.9499 78.1982 16.8749 77.9696 16.8024 77.7499C15.8377 77.6661 15.2872 79.0489 14.3707 78.6146C13.612 78.2563 12.8622 78.0821 12.1399 78.0358C11.6102 77.3161 12.669 76.9532 12.3421 76.3527C11.9543 76.3692 11.5338 76.7353 11.1303 76.0324C11.3836 75.448 11.5196 74.6169 12.5233 74.4129C12.09 73.4255 11.3399 72.7909 10.4095 72.2408C9.43087 71.6639 8.64381 70.8711 8.90979 69.505C9.11096 68.4734 7.78542 67.7415 8.44433 66.5311C8.53933 66.4879 8.82784 66.356 9.10902 66.2068C10.1872 65.633 11.2259 65.3274 12.601 65.7549C14.7558 66.4245 17.1606 66.3342 19.268 67.0951C21.0453 67.7353 21.833 66.6845 22.7366 65.8364C23.3586 65.2536 23.9618 64.5337 24.4547 63.8516C25.9797 61.7424 28.04 60.0554 29.2551 57.7155C31.0219 56.7461 31.2595 54.593 32.6941 53.3197C34.0888 52.0837 34.4446 50.0226 35.6941 48.7135C38.0001 46.2986 39.2234 43.2575 40.9301 40.5031C42.6271 37.7635 44.172 34.9308 45.7835 32.1397C47.4374 29.2751 49.4253 26.545 50.653 23.5076C51.8862 20.455 53.6817 17.7745 55.1105 14.9264C56.1674 14.6432 57.1505 14.3798 57.9996 14.1523C58.1837 14.8395 58.3699 15.5344 58.5696 16.2769C59.6848 15.7622 60.4398 16.28 60.8156 16.8052C62.3635 18.9663 63.4833 21.2456 63.4132 24.1C63.3046 28.4582 63.5158 32.8265 63.6423 37.1901C63.7379 40.5377 63.9792 43.8887 64.277 47.1959C64.6615 51.4562 64.8586 55.7592 65.6938 59.9855C66.0212 61.6435 65.7154 63.45 66.3948 65.0137C66.733 65.7943 65.2657 66.2749 66.3656 67.0037C67.071 67.4713 66.4019 68.3988 66.6691 69.0747C66.9769 69.8538 66.8163 70.7126 67.0022 71.4677C67.1871 72.219 66.8102 72.9315 67.1321 73.6508C67.4341 74.3242 67.3131 75.0863 67.394 75.8012C67.5813 77.4742 67.6068 79.1455 67.5593 80.8145C67.5017 82.8127 66.5112 84.3285 64.808 85.367C64.6054 85.4903 64.3567 85.6765 64.2031 85.7129C63.402 85.9057 63.2442 87.0378 62.5735 87.0439C60.9087 87.0603 59.2112 87.5923 57.6009 87.111C56.7962 86.8695 56.0382 86.8327 55.2589 86.8366C54.493 86.8416 54.0806 86.042 53.1891 86.1804C52.5691 86.2762 51.7131 85.8995 51.5249 84.8348Z" fill="#FDF6CF"/>
</svg>
