<svg width="96" height="110" viewBox="0 0 96 110" fill="none" xmlns="http://www.w3.org/2000/svg">
<path fill-rule="evenodd" clip-rule="evenodd" d="M36.654 27.1757C35.8708 27.0354 35.267 26.928 34.6832 26.8234C34.7444 27.263 34.7938 27.6094 34.8604 28.0858C34.3667 27.914 34.0707 27.811 33.7303 27.6928C33.8501 28.0229 33.9558 28.3162 34.0555 28.5915L33.6821 28.965C33.3704 28.7465 33.0528 28.5232 32.6766 28.2587L31.4169 29.5184C30.0895 29.1059 29.2185 29.3644 29.3475 30.0691C29.554 30.0913 29.7892 30.0555 29.9475 30.1499C30.0928 30.2366 30.1551 30.4626 30.3616 30.8068C29.7139 30.8854 29.1811 30.8805 28.6997 31.0334C28.426 31.1206 28.2336 31.4648 27.91 31.7884C28.3848 31.8599 28.6347 31.8984 28.8661 31.9337C28.9995 33.2985 29.0006 33.3007 27.9246 33.6145C27.7891 34.0156 27.5019 34.4243 27.5859 34.7327C27.691 35.1154 28.0683 35.4124 27.5322 35.6829C27.1647 35.5962 26.8287 35.5159 26.3186 35.394C26.4731 36.5317 26.5961 37.4407 26.7197 38.3502C26.4482 38.367 26.2568 38.3795 25.9853 38.3974C26.0985 38.8771 26.2037 39.3215 26.3148 39.7871C26.1419 40.2603 25.9538 40.778 25.7636 41.2978C26.0178 41.3276 26.1929 41.3476 26.3907 41.3698C25.9614 42.1623 25.5603 42.9005 25.1473 43.6626C25.3749 43.6735 25.5722 43.6832 25.6806 43.6876C26.0812 44.6096 26.4666 45.4979 26.9322 46.5706C27.691 45.0193 26.7007 43.7255 26.9278 42.3927C27.1566 41.0625 27.1853 39.6982 27.3143 38.2055L27.9772 38.8684C27.9241 39.8852 28.0152 40.721 27.8027 41.4701C27.5804 42.2582 28.0536 43.0035 27.7837 43.719C27.4802 44.5245 27.9702 45.1933 28.0124 45.9305C28.0829 47.1533 28.8949 48.3512 28.136 49.5534C28.864 50.4851 29.3843 51.4532 29.3822 52.6728L30.5177 53.8083C30.3925 54.0788 30.2841 54.3119 30.173 54.5531C30.8212 54.655 31.3774 54.7959 31.392 55.6019C31.4126 56.7358 31.9465 57.6535 32.7812 58.357C33.4257 58.9007 33.6739 59.6682 34.1341 60.3083C34.481 60.7897 35.0989 61.0899 35.0496 61.8201C35.0453 61.8775 35.2583 61.9507 35.3705 62.0152C35.6025 61.9046 35.8345 61.794 36.0632 61.6846C36.1375 61.968 36.1532 62.2439 36.2795 62.4515C36.4188 62.683 36.641 62.8792 36.8622 63.0429C37.0844 63.2066 37.3852 63.2722 37.5858 63.4532C37.7592 63.6115 37.7901 63.9914 37.9701 64.0651C39.0102 64.4971 39.8981 65.1422 40.826 65.7666C41.986 66.5482 43.3698 66.9607 44.6517 67.0447C45.5986 65.7801 45.8176 64.412 46.603 63.2396C47.4377 61.9941 47.6464 60.3468 48.2551 58.9294C49.408 56.2437 49.4632 53.2181 50.8834 50.6174C50.9907 50.4212 50.8525 50.09 50.8281 49.8217C50.8069 49.5957 50.7251 49.3566 50.7728 49.1463C51.3999 46.3543 51.5739 43.5288 51.5029 40.6739C51.465 39.1313 51.1446 37.6521 50.7907 36.1642C50.5945 35.3392 50.0969 34.5728 50.0541 33.7657C49.9787 32.3266 49.0844 31.3217 48.3646 30.2875C47.5819 29.1623 46.5092 28.2034 45.4376 27.3248C44.327 26.4136 42.9659 25.8993 41.5415 25.6759C41.1209 25.6098 40.6499 25.9356 40.207 25.9209C39.7653 25.9063 39.3311 25.69 38.8313 25.5437C38.8032 25.8266 38.7847 26.0077 38.7631 26.2212C38.382 26.2315 37.9825 26.2429 37.576 26.2537L36.654 27.1757ZM19.6479 35.4161C20.184 35.769 21.1331 35.5408 21.345 36.5452C21.1607 36.5647 20.9818 36.5831 20.8062 36.6015C21.1 37.355 20.8523 38.0276 20.5325 38.6195C20.5715 39.8185 20.6604 40.9654 20.6317 42.1086C20.6024 43.3075 20.4615 44.5043 20.3661 45.7336C20.2561 45.7396 20.0626 45.751 19.6663 45.7754C20.7829 46.7792 20.8122 48.0346 20.7396 49.2194C21.1791 49.3609 21.5499 49.4801 21.9217 49.5994C22.0204 49.5018 22.1185 49.4037 22.274 49.2482C22.0659 48.9414 21.848 48.6205 21.5683 48.2085C22.3846 47.6069 22.3039 46.764 22.1217 45.8426C21.8285 45.7911 21.5819 45.7483 21.3027 45.7C21.8968 44.7547 22.1429 43.8181 21.9738 42.6354C21.6355 40.27 22.0778 37.9057 22.5375 35.576C22.6139 35.1863 22.9407 34.8475 23.351 34.1434C22.512 34.3678 22.0708 34.4849 21.6832 34.5884C21.7391 34.963 21.7884 35.2996 21.8643 35.808C21.0816 35.4373 20.5097 35.1657 19.9373 34.8936C20.178 34.1087 20.4181 33.3244 20.6707 32.5016C20.8485 32.4799 21.0463 32.4566 21.2664 32.4306C21.5976 30.6165 22.9521 29.315 23.9245 27.7323C24.143 27.6613 24.5132 27.5426 24.8828 27.4234L25.5468 28.0873C25.73 27.9562 25.9262 27.8163 26.3349 27.5247C25.8211 27.2949 25.5045 27.1529 25.1793 27.0076C25.1788 26.8466 25.1793 26.638 25.1788 26.4358C25.8845 25.6802 26.7013 26.2878 27.6363 26.2342C27.3799 25.8726 27.1767 25.5859 26.8937 25.187C27.574 24.1598 28.8928 24.1734 29.7822 23.5267C30.1064 23.7891 30.3644 23.9972 30.9465 24.4666C30.7367 23.8059 30.6191 23.4357 30.5698 23.2823L31.8658 21.9863C31.9471 22.2844 32.004 22.4887 32.1238 22.9294C32.3623 22.5381 32.5124 22.2893 32.8029 21.8112C32.6403 21.9098 32.7184 21.8372 32.8105 21.8101C34.3645 21.3543 35.9006 20.8187 37.478 20.4718C39.6157 20.0024 41.8163 19.8344 43.9839 20.0713C45.8181 20.2718 47.6096 20.8317 49.4725 20.9342C49.8481 20.9553 50.2129 21.1618 50.6048 21.2903C50.6053 21.3548 50.6048 21.4941 50.6043 21.8123C51.3214 21.5125 52.0005 21.6648 52.5978 22.0378C54.6364 23.311 54.6288 23.3229 54.9795 24.272C55.7871 24.6254 56.4831 24.93 57.1704 25.2303C57.017 25.6894 56.9189 25.9837 56.7834 26.3913C57.1552 26.4748 57.4674 26.5453 57.6046 26.5762C58.5688 27.9806 59.4588 29.2771 60.364 30.5953C60.1722 30.8349 59.9651 31.0929 59.6898 31.4376C60.7429 32.3694 60.6833 33.6648 60.647 35.144C61.1473 35.0015 61.4812 34.9072 61.9327 34.7787C62.021 35.163 62.1061 35.5365 62.2362 36.1012C61.8855 35.9283 61.685 35.8297 61.4085 35.6931C61.2649 36.0416 60.9467 36.4346 60.9825 36.7923C61.1007 37.9729 61.318 39.1464 61.5646 40.3079C61.627 40.6033 61.9408 40.8445 61.9918 40.9117C61.9327 41.902 61.6497 42.779 61.885 43.4826C62.5284 45.403 61.8356 47.1668 61.5359 48.982C61.453 49.4856 61.2725 49.9729 61.1305 50.4921C60.9527 50.4086 60.7196 50.2992 60.4714 50.1821C60.4345 50.2829 60.3407 50.446 60.37 50.4721C60.8058 50.858 61.1863 51.2548 60.7917 52.0971L59.9315 52.9573C59.9971 53.6332 60.0768 54.4554 60.1564 55.2723C59.6979 55.5238 59.3602 55.7097 58.9689 55.9243C59.5125 57.4295 58.6431 58.7629 58.0843 60.1923C57.8843 60.2145 57.6859 60.2362 57.4327 60.2638C57.4181 60.8378 57.4024 61.4357 57.3867 62.0465L56.2191 63.2141C56.4907 63.9973 56.6327 64.7301 55.6316 65.1047C55.4717 65.9356 55.3123 66.7671 55.1649 67.54C56.578 67.1492 58.1152 66.7232 59.6979 66.2852C59.7299 66.0928 59.7618 65.8993 59.796 65.6939C60.2659 65.4505 60.7538 65.1979 61.2351 64.9486L61.5576 65.2711C61.6557 65.2207 61.8329 65.1594 61.827 65.1274C61.7245 64.5155 62.2275 64.2607 62.5706 63.9762C63.0162 63.6054 63.5766 63.3767 64.0542 63.0401C64.4938 62.7306 64.8396 62.2254 65.316 62.0482C65.9708 61.8053 65.8461 61.1235 66.2754 60.7245C66.754 60.2806 67.4901 60.1874 67.7996 59.4367C68.0451 58.8421 68.6939 58.4047 69.1888 57.9239C70.7309 56.4262 71.7564 54.5779 72.7857 52.7247C73.4177 51.5886 74.202 50.5301 74.7603 49.3604C75.6476 47.5039 76.5057 45.6182 77.1686 43.675C77.4797 42.7622 78.3269 42.018 78.1074 40.9215C78.0396 40.5838 78.7448 40.2993 78.1767 39.8602C78.0824 39.7876 78.3561 39.2949 78.3865 38.9903C78.4271 38.5756 78.3686 38.1528 78.4028 37.7371C78.4645 36.9555 78.5627 36.1766 78.6667 35.2053L79.8267 36.3652C79.5763 37.2596 79.5763 37.2596 80.2771 39.0336L81.0099 38.3008C80.4733 37.1257 80.9292 35.8026 80.7096 34.512C80.9687 34.5196 81.1758 34.5261 81.5308 34.5375C81.6799 34.9717 81.8522 35.4736 82.0647 36.0937C82.2219 35.918 82.5124 35.7403 82.5097 35.5663C82.5032 35.073 82.3764 34.5819 82.2447 33.7629C82.7867 34.0654 83.0891 34.2345 83.4577 34.4394C83.8642 34.3613 84.3689 34.2643 85.1196 34.1196C84.816 34.8199 84.5889 35.344 84.3602 35.8709C84.6843 36.0443 85.0616 36.246 85.5223 36.492C85.4291 37.0774 85.3396 37.6319 85.2182 38.3854C85.6925 38.2504 86.0286 38.1561 86.3874 38.0542C86.3749 38.5512 86.3641 39.0347 86.3527 39.4971C86.0708 39.5762 85.77 39.6613 85.1288 39.8418C85.6925 40.1789 85.9857 40.354 86.2573 40.5161C86.2166 40.7323 86.1603 41.0315 86.1137 41.2798C86.0741 41.2532 85.9115 41.147 85.6161 40.9524C85.4529 41.7768 85.2995 42.559 85.1407 43.365C85.3922 43.3769 85.589 43.3872 85.5131 43.3829C85.6014 43.9287 85.6893 44.4685 85.7906 45.0989C85.4085 45.1342 85.1548 45.158 84.9017 45.1813C85.022 45.6225 85.1407 46.0632 85.2632 46.5152L84.4572 47.3212C84.1933 48.6096 84.042 49.7951 83.6919 50.9181C83.3802 51.9214 82.2382 52.5345 82.2268 53.8337C81.83 53.8218 81.4202 53.8099 80.9806 53.7963C80.7871 54.0191 80.5736 54.2652 80.1535 54.7492C80.766 54.527 81.0549 54.4213 81.4403 54.2809C80.9573 55.7113 81.1801 57.4366 79.2836 57.9954C79.2836 58.2925 79.2836 58.6415 79.283 59.0236C79.0998 59.0388 78.9139 59.0545 78.5941 59.0806C78.4309 60.0806 77.8624 60.8237 76.671 60.9874C76.6417 61.4655 76.6135 61.9273 76.5815 62.4504C76.2368 62.6314 75.8937 62.8108 75.4704 63.0336C75.4411 63.142 75.4482 63.4623 75.2937 63.5995C75.1229 63.7518 74.7625 63.6743 74.5581 63.8092C74.273 63.9957 74.0557 64.2867 73.8096 64.5328C73.6123 64.7301 73.4427 64.9735 73.2101 65.1106C72.9949 65.238 72.712 65.2521 72.332 65.348C72.4453 67.0701 70.5217 66.6522 69.7585 68.0777C69.6024 67.1411 69.5205 66.6473 69.4387 66.1546C68.9248 66.173 68.6701 67.0901 68.8668 68.3048C68.6582 68.1688 68.495 68.0631 68.295 67.9335C67.3936 67.9536 67.611 68.9103 67.2001 69.3862C66.7947 69.3981 66.3871 69.41 65.9876 69.4214C65.9751 69.6149 65.9627 69.8073 65.9464 70.0686C65.7339 69.9482 65.5653 69.8523 65.2764 69.6881C64.0162 70.3792 62.6671 71.1299 61.2849 71.8107C60.6042 72.1445 60.1743 72.015 59.7537 71.8275C59.3385 72.2275 59.0079 72.8291 58.5759 72.9153C56.1779 73.3923 53.754 73.7359 51.342 74.1457C50.9647 74.2097 50.6102 74.3972 50.2373 74.5002C49.7928 74.6227 49.3397 74.7159 48.834 74.8346C48.9083 74.9783 49.0172 75.1913 49.202 75.5507C48.3597 76.2152 47.8583 77.3388 46.5813 77.5621C46.4263 78.0532 46.2702 78.5475 46.1022 79.082C44.6186 79.3405 44.2376 81.2891 42.7812 81.5531C42.5454 81.9775 42.3291 82.3672 42.0917 82.7954C41.7773 82.6415 41.5464 82.5287 41.2998 82.4079C41.0662 83.2952 40.4195 83.635 39.6222 84.0356C38.8704 84.4145 38.285 85.1202 37.3289 85.0757C37.3191 85.2058 37.3088 85.3354 37.2888 85.6058C37.1208 85.6319 36.9153 85.6617 36.5874 85.711C36.518 85.9148 36.4356 86.1587 36.3662 86.3636C35.564 86.8536 34.7819 87.4037 33.9374 87.8309C32.2121 88.7041 30.7237 90.032 28.7383 90.4293C28.07 90.5632 27.4526 91.0267 26.8488 91.3985C23.3066 93.5791 19.352 94.5667 15.3485 95.4285C13.0839 95.9152 10.8031 96.1364 8.48591 96.0242C7.72923 95.9873 6.9189 95.8914 6.22131 96.1076C5.46084 96.3434 4.85431 95.8897 4.12908 95.983C2.16693 96.2345 0.253029 95.6236 -1.67876 95.3884C-3.55635 95.1596 -5.41659 94.7076 -7.24919 94.2225C-9.18315 93.7097 -11.1805 93.2528 -12.9573 92.379C-14.6327 91.5557 -16.4908 91.0538 -17.9765 89.8391C-18.157 89.6911 -18.5559 89.7952 -18.7174 89.6402C-19.6367 88.7577 -20.898 88.4309 -21.872 87.6661C-22.5789 87.11 -23.1653 86.401 -23.916 85.6503C-23.8851 85.2237 -23.8456 84.6844 -23.7984 84.0269C-23.2125 83.7055 -22.5328 83.3326 -21.9127 82.9933C-21.6748 83.1445 -21.5105 83.248 -21.3338 83.3597L-20.7528 82.7786C-20.124 82.8588 -19.5175 82.8518 -18.9722 83.0296C-18.4285 83.2079 -17.848 83.4751 -17.4518 83.8713C-16.0024 85.3218 -14.0029 85.6692 -12.2619 86.5105C-10.9968 87.1219 -9.63737 87.5588 -8.35114 88.1664C-7.65951 88.4938 -6.83888 88.5566 -6.07028 88.7106C-4.33633 89.0569 -2.6452 89.5903 -0.883063 89.8196C0.0898784 89.9459 1.03843 90.3014 2.01137 90.3779C4.1242 90.5426 6.24733 90.6852 8.36558 90.6743C12.8319 90.6527 17.0874 89.4813 21.2583 88.0076C22.1602 87.6888 22.9662 87.0747 23.7858 86.5479C24.8801 85.8449 26.214 85.6253 27.2369 84.7836C28.715 83.5678 30.5942 82.9493 31.9736 81.5655C32.4739 81.0642 33.1672 80.759 33.7542 80.3379C34.3418 79.9172 34.6361 79.1492 35.5516 79.0793C35.8638 79.0565 36.1776 78.4239 36.4042 78.0218C37.06 76.8597 37.7441 76.2157 39.0054 75.6851C39.0531 75.4282 39.1008 75.1712 39.168 74.8081C39.4233 74.7815 39.6786 74.743 39.9355 74.7322C40.1404 74.7235 40.3469 74.7479 40.4748 74.7533C40.4575 74.2471 40.4412 73.7723 40.4179 73.1321C39.6276 72.8524 38.6493 72.544 37.7023 72.1608C36.7478 71.7743 35.8421 71.2654 34.8805 70.899C33.9786 70.5553 33.1341 70.1607 32.0777 69.4068C32.1531 69.4073 31.804 69.4062 31.3883 69.4068C30.8359 68.8544 30.2717 68.2425 29.6548 67.6907C29.218 67.2993 28.9594 66.6592 28.167 66.7069C27.9323 66.7215 27.5236 66.3096 27.4455 66.0245C27.0932 64.7366 25.9457 64.1258 25.1826 63.1946C24.5056 62.368 23.8698 61.5099 24.0194 60.2524C23.3456 59.6719 22.7792 58.9678 22.4968 58.035C22.3131 57.4274 21.6984 56.8843 21.6881 56.3048C21.6746 55.5541 21.0924 55.2506 20.9054 54.7286C20.5087 53.6229 19.6441 52.5426 20.5217 51.1805C20.0756 51.1192 19.8197 51.0845 19.52 51.0439C19.5802 50.6737 19.643 50.2889 19.7661 49.5338C19.6631 49.2997 19.4062 48.7175 19.0072 47.8134C18.9162 46.7022 18.5107 45.1694 18.7552 43.7498C18.9958 42.3535 18.7308 41.0131 18.8761 39.6678C19.0305 38.2385 19.3829 36.8314 19.6479 35.4161Z" fill="#FDF6CF"/>
</svg>
