<svg width="167" height="143" viewBox="0 0 167 143" fill="none" xmlns="http://www.w3.org/2000/svg">
<path opacity="0.1" fill-rule="evenodd" clip-rule="evenodd" d="M144.704 82.8181C144.769 82.5373 144.882 82.4222 144.899 82.2422C144.98 81.3757 144.89 80.5131 144.864 79.6502C144.839 78.8116 144.799 77.9642 144.655 77.1404C144.509 76.3016 144.645 75.4665 144.544 74.6237C144.417 73.5565 144.377 72.4906 144.07 71.443C143.902 70.8682 143.408 70.4785 143.32 69.8839C143.31 69.8193 143.285 69.755 143.258 69.6947C143.222 69.6172 143.191 69.5081 143.037 69.645C143.219 70.3049 143.393 70.9889 143.54 71.6742C143.761 72.706 143.987 73.7276 144.132 74.7761C144.193 75.2148 144.241 75.6545 144.235 76.0864C144.228 76.5621 144.376 77.0073 144.382 77.4822C144.399 78.6883 144.414 79.896 144.494 81.1023C144.528 81.6236 144.372 82.1575 144.704 82.8181ZM94.8478 117.554C94.5973 118.007 94.4874 118.435 94.4677 118.786C94.4072 119.857 94.4096 120.931 94.3159 122.003C94.19 123.438 94.0599 124.879 94.0647 126.317C94.067 127.073 93.874 127.909 94.4638 128.64C94.5638 127.734 94.7371 126.866 94.7377 125.998C94.7376 124.705 94.8347 123.423 94.9495 122.139C94.9956 121.62 95.114 121.087 95.0426 120.582C94.9623 120.015 95.0211 119.475 95.049 118.918C95.0722 118.47 95.1995 117.973 94.8478 117.554ZM135.444 192.526C135.634 192.622 135.693 192.651 135.753 192.681C135.523 192.978 135.562 193.486 135.02 193.516C135.1 193.758 135.14 193.957 135.229 194.13C135.344 194.352 135.224 194.514 135.126 194.677C134.992 194.903 134.797 194.665 134.636 194.715C134.652 195.119 134.667 195.52 134.683 195.919C134.457 195.932 134.537 195.503 134.123 195.703C134.38 196.053 133.818 196.272 133.957 196.698C134.109 196.749 134.257 196.817 134.412 196.849C134.599 196.887 134.54 196.569 134.722 196.587C134.837 196.674 134.819 196.85 134.978 196.871C134.869 196.656 135.271 196.348 134.839 196.178C135.036 195.794 135.177 195.366 135.445 195.041C135.713 194.715 135.771 194.322 135.956 193.974C136.159 193.593 136.441 193.221 136.513 192.813C136.589 192.387 136.815 192.043 136.933 191.648C137.041 191.285 137.185 190.928 137.35 190.587C137.533 190.209 137.63 189.793 137.737 189.406C137.838 189.041 138.053 188.695 138.168 188.096C137.105 189.152 136.96 190.535 136.021 191.33C136.007 191.604 136.216 191.787 136.157 191.989C135.931 192.159 135.735 192.307 135.444 192.526ZM175.646 73.0906C175.441 73.5528 175.977 73.654 176.064 73.9901C176.462 75.5166 177.362 76.8566 177.725 78.3995C177.763 78.561 177.78 78.7782 177.889 78.8624C178.29 79.1726 178.365 79.634 178.47 80.0619C178.582 80.5178 178.928 80.8347 179.077 81.2475C179.472 82.3427 179.873 83.4406 180.171 84.5644C180.474 85.7136 181.177 86.6854 181.489 87.8275C181.743 88.7571 182.084 89.6629 182.392 90.5773C182.442 90.7245 182.435 90.9137 182.848 91.0645C182.284 90.2729 182.484 89.4636 182.207 88.7359C181.959 88.0832 181.748 87.4158 181.545 86.7471C181.338 86.0635 180.881 85.5042 180.666 84.8119C180.368 83.8553 180.171 82.8571 179.572 81.9943C179.281 81.5751 179.252 80.9823 179.038 80.4975C178.82 80.0026 178.802 79.4535 178.383 78.9944C178.055 78.6355 178.016 78.0128 177.849 77.5075C177.734 77.16 177.712 76.721 177.482 76.4862C177.107 76.1026 177.126 75.5737 176.851 75.1984C176.535 74.7666 176.348 74.3014 176.211 73.8085C176.118 73.4755 175.83 73.3361 175.646 73.0906ZM180.346 95.6989C180.449 94.5822 180.015 93.5906 179.682 92.5757C179.215 91.1522 178.69 89.746 178.282 88.3061C177.723 86.3364 176.788 84.5128 176.159 82.5733C176.138 82.5102 176.127 82.441 176.094 82.3847C175.916 82.0763 175.681 81.8017 175.574 81.4506C175.437 81.0052 175.228 80.5742 175.152 80.1202C175.076 79.6714 174.663 79.4508 174.557 79.0335C174.443 78.5831 174.306 78.1315 174.115 77.7087C173.92 77.2757 174.014 76.6979 173.493 76.4185C173.452 76.3969 173.416 76.2738 173.439 76.2386C173.729 75.8026 173.314 75.6205 173.137 75.347C172.913 75.0019 172.609 74.6982 172.555 74.2584C172.551 74.2207 172.458 74.193 172.406 74.1605C172.316 74.1945 172.208 74.2029 172.165 74.3964C172.114 74.6277 172.488 74.588 172.561 74.8387C172.825 75.7421 173.227 76.5971 173.58 77.4673C174.068 78.6756 174.773 79.8046 175.04 81.1016C175.054 81.1661 175.062 81.2578 175.106 81.2865C175.534 81.5709 175.591 82.0553 175.689 82.4811C175.795 82.9454 176.152 83.2476 176.307 83.6636C176.937 85.3546 177.413 87.0934 178.166 88.7511C178.863 90.2886 179.268 91.9587 179.802 93.57C179.854 93.7283 179.982 93.906 179.946 94.0409C179.778 94.6776 180.206 95.148 180.346 95.6989ZM79.5628 92.8489C79.4332 92.7305 79.2268 92.7167 79.238 92.4803C79.438 92.2079 79.4753 91.8103 79.7858 91.5905C79.8786 91.5247 79.9572 91.4592 79.9082 91.3705C79.7286 91.0463 80.0536 90.7982 80.0322 90.5498C80.0025 90.2014 80.2069 89.9959 80.3189 89.7388C80.417 89.5129 80.523 89.2957 80.744 89.1101C80.8987 88.9805 80.8328 88.5893 80.8653 88.3146C80.8943 88.0657 81.2033 88.0336 81.2575 87.8164C81.2741 87.6369 80.9724 87.4219 81.2855 87.3066C81.5822 87.1979 81.3959 86.9712 81.4386 86.8158C81.5043 86.5772 81.8835 86.5708 81.8081 86.3117C81.6585 85.7962 82.0221 85.4048 82.0504 84.916C82.2597 85.0119 82.4313 85.0905 82.6034 85.1686C82.7453 84.8406 82.4624 84.6846 82.3229 84.5081C82.5093 84.16 82.831 84.1464 83.2013 84.1086C82.7975 83.9394 82.8305 83.5939 82.7475 83.3118C82.9073 82.9752 83.0884 82.6551 83.32 82.1113C82.0721 83.0022 82.1376 84.3136 81.5829 85.3048C81.4462 85.2278 81.336 85.1442 81.1242 85.2623C81.2926 85.9163 80.7353 86.3765 80.5022 86.9497C80.6425 87.0317 80.7263 87.0808 80.8115 87.1305C80.6164 87.6672 80.2498 88.131 80.161 88.7297C80.1218 88.9947 80.0036 89.3658 79.7349 89.4753C79.2207 89.6847 79.1153 90.133 79.0373 90.5583C78.9987 90.769 78.8907 90.7983 78.7821 90.891C78.7045 90.9576 78.7214 91.0084 78.8179 91.0258C79.005 91.0781 79.1749 90.828 79.3591 90.9854C79.3833 91.0585 79.4347 91.1298 79.4197 91.1811C79.3074 91.5622 78.9252 91.7938 78.8089 92.1427C78.6864 92.5094 78.8811 92.9478 78.6642 93.3265C78.6479 93.3554 78.6341 93.3859 78.6192 93.4155C78.3682 93.4852 78.1016 92.9297 77.7887 93.4811C78.1458 93.6735 78.467 93.8461 78.7628 94.0052C79.074 93.5952 79.1142 93.0887 79.5628 92.8489ZM177.684 97.735C177.758 97.5628 177.883 97.4179 177.851 97.327C177.668 96.8074 177.787 96.2533 177.585 95.7222C177.135 94.5409 176.773 93.3258 176.375 92.1245C176.071 91.2081 175.783 90.2853 175.459 89.3761C175.144 88.4902 174.908 87.5844 174.416 86.7494C174.013 86.0654 173.879 85.2397 173.462 84.5229C173.044 83.8036 172.962 82.9309 172.487 82.1942C172.136 81.6526 171.985 80.9595 171.846 80.3119C171.698 79.6237 171.17 79.1421 170.994 78.4686C170.708 77.3752 170 76.5103 169.312 75.5844C169.18 76.151 169.685 76.3522 169.811 76.7396C169.979 77.2568 170.193 77.7459 170.47 78.2312C170.864 78.9226 171.03 79.7326 171.428 80.4555C171.86 81.2435 171.962 82.1806 172.473 82.9704C172.814 83.4976 172.88 84.1728 173.263 84.7279C173.553 85.149 173.675 85.7128 173.775 86.2313C173.879 86.7663 174.301 87.1073 174.463 87.6023C175.392 90.452 176.334 93.2972 177.291 96.1371C177.456 96.6259 177.24 97.1808 177.684 97.735ZM139.662 193.83C139.771 193.294 139.817 192.728 140.138 192.291C140.895 191.265 140.832 189.88 141.67 188.9C141.538 188.217 141.993 187.686 142.177 187.093C142.439 186.251 142.631 185.385 142.927 184.56C143.195 183.813 143.365 183.05 143.576 182.292C143.787 181.535 143.993 180.771 144.254 180.034C144.582 179.111 144.653 178.135 144.968 177.21C145.185 176.573 145.469 175.924 145.391 175.211C145.381 175.127 145.488 175.038 145.515 174.943C145.744 174.16 146.021 173.385 146.181 172.587C146.479 171.093 146.789 169.603 147.175 168.127C147.223 167.941 147.437 167.651 147.11 167.365C147.011 167.563 146.859 167.742 146.833 167.937C146.679 169.116 146.298 170.24 146.044 171.393C145.851 172.27 145.66 173.149 145.476 174.028C145.221 175.253 144.749 176.43 144.475 177.657C144.297 178.455 143.993 179.232 143.845 180.018C143.578 181.437 143.057 182.778 142.743 184.181C142.497 185.281 142.065 186.347 141.724 187.428C141.389 188.492 141.039 189.584 140.504 190.584C140.381 190.816 140.306 191.048 140.298 191.311C140.29 191.591 139.784 191.633 139.951 192.009C139.576 192.554 139.541 193.241 139.205 193.802C139.157 193.882 139.148 193.922 139.238 193.955C139.392 193.983 139.53 193.894 139.662 193.83ZM185.232 89.4601C185.248 89.1432 185.611 88.7833 185.119 88.5429C185.374 88.2737 184.986 88.2766 184.938 88.1307C184.874 87.9323 185.076 87.7909 184.986 87.57C184.857 87.2543 185.158 86.8177 184.656 86.5778C184.456 86.482 184.888 86.1316 184.609 85.9823C184.328 85.8319 184.367 85.6943 184.443 85.4337C184.497 85.2492 184.281 85.0067 184.471 84.7934C183.878 84.3951 183.996 83.6729 183.717 83.1301C183.589 82.8836 183.589 82.566 183.291 82.4232C183.493 82.0398 183.317 81.5655 183.088 81.4564C182.629 81.2377 182.957 80.8093 182.68 80.5224C182.428 80.2611 182.329 79.8013 182.088 79.4549C181.924 79.2191 181.886 78.8954 181.792 78.6109C181.687 78.2948 181.533 77.985 181.493 77.6612C181.462 77.398 180.993 77.3087 181.247 76.9669C181.041 76.7256 180.826 76.5004 180.762 76.1618C180.706 75.8699 180.59 75.5878 180.484 75.3079C180.339 74.922 180.186 74.5545 179.95 74.1931C179.682 73.7825 179.289 73.3878 179.247 72.8409C179.236 72.6948 179.09 72.6467 179.018 72.5527C178.793 72.2573 178.522 71.9463 178.443 71.6014C178.348 71.1908 178.091 70.8345 177.85 70.6468C177.47 70.3497 177.525 69.8996 177.23 69.5838C176.858 69.1844 176.515 68.7047 176.276 68.2244C175.772 67.2069 174.773 66.5243 174.449 65.3948C174.395 65.2091 174.032 65.2492 173.915 65.011C173.451 64.0753 172.761 63.301 172.092 62.506C172.234 62.8768 172.124 63.3823 172.672 63.5285C172.87 63.5816 172.867 63.7722 172.924 63.9193C173.006 64.134 173.022 64.4197 173.174 64.5542C173.957 65.2468 174.394 66.1879 175.024 66.9844C175.278 67.3054 175.313 67.7111 175.57 67.973C176.162 68.5782 176.613 69.2677 177.085 69.965C177.483 70.5522 177.866 71.1757 178.208 71.7776C178.563 72.4025 179.033 73.0281 179.144 73.789C179.158 73.8861 179.177 74.0313 179.24 74.0651C179.653 74.283 179.671 74.7147 179.761 75.0737C179.859 75.4706 180.213 75.6817 180.329 76.0623C180.477 76.5477 180.686 77.0057 180.946 77.4628C181.354 78.182 181.484 79.0506 181.954 79.7712C182.112 80.0141 182.152 80.3337 182.246 80.6179C182.33 80.8707 182.461 81.1191 182.485 81.3774C182.512 81.6722 182.882 81.813 182.816 82.0764C182.721 82.4558 183.008 82.5737 183.173 82.7858C183.247 82.8811 183.174 82.9732 183.129 83.058C183.035 83.2368 183.149 83.4799 183.218 83.5077C183.524 83.6323 183.546 83.9026 183.622 84.1449C183.716 84.4408 183.906 84.7286 183.742 85.0599C184.161 85.2293 184.057 85.6781 184.233 85.9773C184.428 86.3105 184.256 86.7652 184.589 87.0528C184.43 87.9565 185.033 88.651 185.232 89.4601ZM75.1584 132.149C75.2203 131.973 75.2482 131.936 75.2393 131.914C74.6629 130.48 74.4128 128.955 74.0165 127.428C74.0324 127.347 74.1528 127.358 74.2833 127.288C74.3423 126.977 74.0003 126.656 74.2087 126.293C74.2572 126.209 74.1184 126.024 73.9812 125.9C73.6973 125.643 73.5922 125.306 73.8715 124.942C74.0884 124.885 73.9689 125.234 74.1811 125.2C74.4303 124.793 73.9209 124.714 73.832 124.482C73.7614 124.204 74.0937 124.298 74.1117 124.121C74.0181 123.965 73.8918 124.089 73.7826 124.077C73.1358 122.843 73.3342 122.982 73.3208 121.682C73.0804 121.313 72.7263 121.566 72.3549 121.516C72.9222 121.093 71.9966 120.84 72.3628 120.392C72.6259 120.415 72.8451 120.684 73.2012 120.707C73.0775 120.426 73.1452 120.1 72.8076 119.95C72.3813 119.761 72.2782 119.444 72.3977 119.002C72.4332 118.87 72.3323 118.702 72.2979 118.564C72.1243 118.56 72.0017 118.556 71.8817 118.553C71.9104 118.489 71.9204 118.41 71.9583 118.393C72.1373 118.312 72.3791 118.297 72.4921 118.166C72.6083 118.031 72.8731 117.754 72.514 117.606C72.2573 117.501 72.6618 117.145 72.2751 117.128C72.2332 117.126 72.4226 116.999 72.5099 116.921C72.6013 116.685 72.0854 116.702 72.2859 116.418C72.3727 116.296 72.387 116.155 72.2977 116.052C71.747 115.416 71.9624 114.793 72.3064 114.165C72.3171 114.145 72.2805 114.103 72.2797 114.072C72.2779 114.011 72.2861 113.949 72.2933 113.847C72.4757 114.025 72.6402 114.185 72.7894 114.33C72.8557 114.762 72.3544 114.809 72.2914 115.174C72.4595 115.382 72.6214 115.63 72.9081 115.733C73.3058 115.53 72.9043 115.252 72.9637 114.993C73.0183 114.755 73.127 114.453 72.9524 114.156C72.7883 113.875 72.7306 113.532 72.604 113.149C73.0714 113.06 73.2777 112.717 73.3697 112.283C73.2431 111.91 72.8873 112.056 72.6385 111.959C72.7048 111.624 73.292 111.674 73.8088 112.071C74.3757 111.51 73.5495 111.27 73.5236 110.842C73.5537 110.542 73.9578 110.71 74.0188 110.448C73.9384 110.009 73.5333 110.156 73.3279 110.063C73.3274 109.772 73.1236 109.528 73.2213 109.278C73.0913 109.073 72.7032 109.395 72.7001 108.984C72.8168 108.715 72.996 108.808 73.1792 108.911C73.4879 108.63 73.2639 108.146 73.5933 107.882C73.3992 107.715 73.1997 107.645 72.8897 107.713C72.996 107.146 71.9648 106.914 72.5192 106.207C72.7088 106.24 72.7006 106.712 73.0713 106.397C73.1458 106.05 72.6694 105.984 72.6108 105.641C72.5541 105.31 72.6221 105.018 72.6276 104.709C72.7967 104.705 72.9858 104.985 73.126 104.669C73.1495 104.521 73.0846 104.432 72.9523 104.365C72.75 104.263 72.6619 104.026 72.7503 103.876C73.0286 103.408 72.8968 102.892 72.9953 102.406C73.0782 101.998 72.9098 101.503 73.4167 101.245C73.4478 101.229 73.4594 101.118 73.4387 101.069C73.3076 100.748 73.5108 100.445 73.4835 100.147C73.4534 99.8232 73.7126 99.6096 73.7005 99.3284C73.685 98.9672 74.0972 98.677 74.0077 98.4396C73.864 98.058 74.5017 98.0467 74.2455 97.7174C74.5501 97.5439 74.6423 97.2212 74.8004 96.9307L74.5562 96.1937C74.727 95.86 74.9881 95.7299 75.3561 95.7933C75.5273 95.525 75.2468 95.3107 75.2667 95.039C75.349 94.9739 75.4456 94.8975 75.5715 94.7975L75.3695 94.1878C75.4919 94.0832 75.5856 94.0035 75.6911 93.913C75.69 93.5861 75.0898 93.5475 75.316 93.0944C75.3926 93.0192 75.4422 93.1841 75.586 93.1265C75.474 92.8699 75.7393 92.5257 75.3835 92.2495C75.6406 92.0204 76.1587 92.1255 76.1718 91.5337L75.8918 90.6885C76.4006 90.1633 76.6397 89.4407 77.2186 88.9861C77.1104 88.8436 76.9827 88.9616 76.8279 88.9333C76.7487 88.6863 77.1349 88.5121 76.987 88.2662C76.8135 87.9778 77.0808 87.9039 77.1911 87.7335C77.3303 87.5187 77.4312 87.2826 77.6666 87.144L77.5446 86.7757C77.5677 86.6557 77.6385 86.6049 77.7395 86.5753C77.8316 86.5482 77.919 86.5054 77.998 86.4738C78.0859 86.21 77.865 86.0281 77.8937 85.6801C77.9543 85.4682 78.4159 85.2793 78.2138 84.8125C78.1774 84.7285 78.4848 84.6031 78.5703 84.4057C78.8194 83.8307 79.2143 83.3297 79.4145 82.7238C79.5138 82.4246 79.6997 82.1657 79.942 81.9311C80.1689 81.712 80.1107 81.3325 80.2253 81.0306C80.3353 80.7406 80.7643 80.654 80.6614 80.25C80.6253 80.1072 80.8764 80.1163 80.9189 80.008C81.0156 79.7629 81.2692 79.6534 81.3093 79.3155C81.3694 78.8093 81.9304 78.5096 82.0996 78.0008C82.2432 77.5688 82.4984 77.1809 82.8484 76.8966C83.1465 76.6547 82.9432 76.1261 83.407 76.0138C83.6049 75.4148 84.1113 75.0011 84.3574 74.4325C84.4615 74.1919 84.5974 73.9813 84.8184 73.8351C84.9622 73.7404 84.8522 73.2859 85.2402 73.5368C85.3476 73.2364 85.3264 72.8779 85.6913 72.6976C85.7664 72.66 85.629 72.455 85.8127 72.3034C86.1953 71.988 86.3719 71.4774 86.7736 71.1568C86.8914 71.0626 87.0577 70.9087 87.0875 70.832C87.4803 69.8145 88.4164 69.2257 88.9901 68.3583C89.0446 68.2758 89.0619 68.1612 89.1289 68.0946C89.631 67.5944 90.2677 67.2225 90.6498 66.6119C91.0218 66.0178 91.5412 65.5643 92.0623 65.1381C92.3627 64.8927 92.4609 64.5027 92.8022 64.3237C93.1833 64.1237 93.3733 63.7524 93.5522 63.3781C93.7334 63.432 93.848 63.4658 93.9619 63.4998C93.9437 62.8879 94.3967 62.5499 94.7863 62.2193C94.9255 62.1014 95.0688 61.9606 95.1844 61.8354C95.9831 60.9702 96.8482 60.1857 97.8074 59.5032C97.9054 59.4333 97.9629 59.3085 98.0488 59.2182C98.4714 58.7745 98.9426 58.4258 99.5647 58.2834C100.043 58.1738 101.28 57.3 101.732 56.8461C102.625 55.9502 103.501 55.0359 104.42 54.1678C105.068 53.5561 105.77 53.0015 106.458 52.4331C107.195 51.8241 107.947 51.2323 108.59 50.496C109.086 50.754 109.353 50.2877 109.721 50.092C110.145 49.8662 109.855 49.2766 110.272 49.0694C110.51 48.8 110.775 49.1517 111.012 49.0324C111.209 48.8355 110.955 48.6652 110.998 48.4661C111.101 48.2916 111.244 48.3051 111.428 48.431C111.474 48.4707 111.511 48.4503 111.534 48.3522C111.614 48.0178 111.888 47.8075 112.127 47.6302C112.309 47.4948 112.495 47.4068 112.601 47.1841C112.757 46.8565 113.023 46.8318 113.327 46.9901C113.524 46.579 113.68 46.1767 114.226 46.0328C114.459 45.971 114.489 45.4414 114.9 45.4235C114.965 45.1475 115.2 45.0581 115.423 45.0498C115.839 45.0343 115.477 44.6191 115.778 44.479C116.598 44.0978 117.299 43.5057 118.095 43.0624C118.514 42.8293 119.056 42.7353 119.357 42.2717C119.456 42.1197 119.641 42.2983 119.786 42.3102C119.864 42.1559 119.938 42.0069 120.025 41.8337C120.319 41.7822 120.589 41.5062 120.934 41.6593C121.097 41.7315 121.074 41.5973 121.121 41.5393C121.628 40.9152 122.388 40.6507 123.009 40.1931C123.468 39.8552 124.082 39.8133 124.466 39.4812C125.101 38.9319 126.037 39.0587 126.578 38.3963C127.212 38.2883 127.749 37.8469 128.464 37.9557C128.786 38.0051 129.148 37.7221 129.504 37.6435C130.791 37.36 132.094 37.1497 133.404 37.4119C134.012 37.5335 134.626 37.772 135.229 37.7347C135.891 37.6939 136.509 37.9081 137.171 37.8717C137.706 37.8421 138.259 38.1367 138.802 38.2937C139.699 38.5531 140.587 38.846 141.549 38.7406C141.673 38.727 141.859 38.7634 142.002 38.8027C142.575 38.9604 143.182 38.9415 143.736 39.0756C144.31 39.2142 144.93 39.2443 145.466 39.5132C146.138 39.8501 146.951 39.8262 147.531 40.4368C147.833 40.7543 148.358 40.8471 148.726 41.1182C149.065 41.3682 149.365 41.6433 149.788 41.7723C150.013 41.8409 150.189 42.0666 150.391 42.2153C151.012 42.6724 151.777 42.8456 152.427 43.2422C152.759 43.4447 153.12 43.5866 153.449 43.8107C153.736 44.0069 154.147 44.0717 154.464 44.2679C156.057 45.2547 157.757 46.0912 159.061 47.4911C159.255 47.6997 159.629 47.5876 159.739 47.7346C159.893 47.9412 160.101 47.9947 160.273 48.1309C161.155 48.8318 162.05 49.517 162.895 50.2604C163.08 50.4235 163.388 50.5988 163.365 50.9485C163.349 51.1967 163.606 51.2721 163.729 51.358C164.304 51.7596 164.587 52.341 164.874 52.9395C165.007 53.2151 165.22 53.4519 165.396 53.7061L165.651 54.5764C165.61 55.1858 166.126 55.5092 166.475 55.7735C166.979 56.1557 167.4 56.6147 167.871 57.022C168.384 57.4671 168.885 57.9384 169.361 58.4174C169.944 59.0038 170.514 59.619 171.053 60.2459C172.017 61.366 172.957 62.5119 173.77 63.7554C174.208 64.4254 174.709 65.0556 175.199 65.6908C175.766 66.4269 176.4 67.1151 176.795 67.971C177.279 68.1018 177.093 68.6521 177.394 68.92C177.642 69.1405 177.813 69.4508 178.007 69.7299C178.487 70.4263 178.844 71.1973 179.304 71.9049C179.393 72.0418 179.298 72.0684 179.281 72.1375C179.237 72.3161 179.301 72.493 179.404 72.5877C179.585 72.7536 179.99 72.745 179.777 73.1632C179.991 73.3598 180.081 73.6429 180.24 73.8635C180.872 74.7409 180.919 75.9334 181.781 76.6772C181.803 76.6958 181.807 76.7381 181.814 76.7706C182.082 78.0324 182.909 79.0741 183.219 80.3239C183.267 80.5179 183.097 80.7509 183.229 80.827C183.475 80.9699 183.485 81.1991 183.553 81.4056C183.62 81.6041 183.714 81.7364 183.907 81.84C184.109 81.9479 183.739 82.1977 183.961 82.315C184.177 82.4292 184.173 82.6369 184.233 82.813C184.524 83.6637 184.773 84.5304 185.101 85.3662C185.217 85.6624 185.027 86.0176 185.32 86.2542C185.124 86.608 185.41 86.8832 185.484 87.1896C185.57 87.544 185.824 87.8965 185.794 88.2319C185.756 88.6816 185.853 89.0731 186.026 89.4465C186.212 89.8473 185.981 90.2865 186.206 90.67C186.292 90.817 186.206 90.9832 186.21 91.1297C186.23 91.783 186.27 92.4432 186.389 93.085C186.595 94.1974 186.55 95.3145 186.525 96.4299C186.508 97.1665 186.455 97.9131 186.309 98.6331C186.022 100.043 185.73 101.452 185.245 102.819C184.961 103.619 184.683 104.427 184.447 105.249C184.199 106.115 183.742 106.92 183.379 107.752C183.079 108.438 182.617 109.049 182.489 109.815C182.448 110.061 182.284 110.285 182.009 110.417C182.106 110.477 182.182 110.524 182.286 110.588C182.042 110.873 182.041 111.295 181.66 111.531C181.366 111.713 181.535 112.138 181.356 112.42C180.869 113.189 180.734 114.158 180.014 114.798C179.955 115.246 179.82 115.654 179.428 115.931C179.582 116.421 178.949 116.354 178.945 116.734C178.834 116.855 179.029 116.774 179.032 116.938C178.737 117.172 178.656 117.632 178.391 117.957C178.119 118.292 178.016 118.718 177.61 119.008C177.275 119.248 177.166 119.805 176.934 120.266L176.325 120.468C176.365 120.656 176.399 120.812 176.43 120.961C176.103 121.346 175.592 121.519 175.392 122.044C175.225 122.482 174.717 122.683 174.514 123.148C174.371 123.473 174.063 123.741 173.787 123.987C173.652 124.107 173.421 124.121 173.218 124.188C172.84 125.091 172.253 125.815 171.384 126.288C170.866 127.16 169.875 127.599 169.367 128.46C169.198 128.746 168.919 128.783 168.723 129.001C167.814 130.016 166.848 130.976 165.957 132.011C165.255 132.828 164.458 133.565 163.676 134.309C163.19 134.771 162.798 135.286 162.449 135.858C161.72 137.05 161.02 138.257 160.309 139.459C159.581 140.689 158.882 141.939 158.134 143.154C157.003 144.991 156.146 146.959 155.149 148.859C154.477 150.14 153.965 151.498 153.348 152.807C152.784 154.006 152.32 155.258 151.805 156.484C151.136 158.079 150.552 159.711 149.985 161.346C149.347 163.19 148.827 165.074 148.333 166.962C147.868 168.736 147.538 170.545 147.108 172.325C146.726 173.905 146.308 175.483 145.885 177.056C145.578 178.201 145.331 179.363 145.022 180.508C144.626 181.97 144.215 183.427 143.709 184.857C143.498 185.454 143.369 186.076 143.144 186.675C143.036 186.964 142.978 187.304 142.802 187.557C142.619 187.821 142.693 188.115 142.577 188.387C142.161 189.365 141.85 190.383 141.416 191.361C140.931 192.452 140.544 193.59 140.033 194.674C139.897 194.963 139.647 195.212 139.526 195.47C139.385 195.77 139.374 196.116 139.082 196.37C138.864 196.56 139.078 196.984 138.674 197.159C138.545 197.216 138.548 197.609 138.457 197.847C138.208 198.5 137.687 198.976 137.398 199.6C137.104 200.234 136.834 200.891 136.448 201.468C135.835 202.382 135.342 203.369 134.721 204.27C134.128 205.128 133.713 206.13 132.892 206.803C132.67 206.985 132.983 207.3 132.639 207.336C131.618 208.694 130.604 210.06 129.569 211.407C129.135 211.973 128.592 212.45 128.109 212.971C127.483 213.647 126.945 214.418 126.2 214.989C125.296 215.683 124.687 216.713 123.65 217.261C123.49 217.83 122.837 217.938 122.569 218.414C122.464 218.601 122.288 218.504 122.157 218.428C121.576 219.153 120.946 219.809 120.19 220.365C119.249 221.057 118.405 221.879 117.47 222.579C116.031 223.655 114.595 224.732 113.037 225.645C112.41 226.013 111.798 226.382 111.141 226.704C110.534 227.001 109.987 227.445 109.359 227.738C109.283 227.773 109.247 227.931 109.178 227.942C108.384 228.065 107.834 228.752 107.044 228.863C106.441 228.948 106.066 229.473 105.482 229.608C104.933 229.735 104.332 229.846 103.882 230.153C102.844 230.86 101.641 231.1 100.488 231.415C99.748 231.618 98.9946 231.847 98.2359 231.977C97.0374 232.182 95.8176 232.399 94.6046 232.336C92.927 232.251 91.2811 231.981 89.6651 231.407C88.4181 230.965 87.4373 230.22 86.4402 229.433C85.7537 228.892 85.1974 228.212 84.6741 227.545C84.2848 227.048 83.9793 226.433 83.6223 225.886C83.1075 225.097 82.7475 224.227 82.2227 223.443C81.9292 223.003 81.7375 222.464 81.5361 221.973C80.6622 219.842 79.7863 217.707 79.1309 215.491C79.0102 215.084 79.1788 214.666 78.9617 214.264C78.7749 213.918 78.5891 213.51 78.598 213.134C78.6114 212.59 78.3354 212.127 78.3114 211.63C78.2861 211.099 78.0861 210.629 78.012 210.128C77.8557 209.071 77.9117 207.986 77.5768 206.953C77.7706 205.135 77.4144 203.324 77.58 201.492C77.7019 200.147 77.824 198.794 77.8955 197.444C77.9514 196.392 78.1827 195.369 78.2476 194.322C78.2726 193.914 78.5483 193.526 78.6139 193.142C78.6769 192.776 78.5485 192.359 78.6074 191.941C78.6586 191.58 78.7569 191.299 79.0155 191.13C78.5983 190.568 79.1917 190.089 79.0779 189.544C78.9706 189.032 79.1809 188.451 79.268 187.903C79.3556 187.353 79.4886 186.81 79.5562 186.258C79.6277 185.675 79.7165 185.097 79.8132 184.517C79.9039 183.974 79.8836 183.413 79.9102 182.86C79.9373 182.297 80.1698 181.778 80.2573 181.222C80.3443 180.668 80.2722 180.112 80.4051 179.562C80.5331 179.033 80.559 178.478 80.6286 177.945C80.3605 177.848 80.44 178.096 80.3248 178.126C79.9979 177.944 80.2181 177.715 80.3321 177.558C80.5058 177.318 80.2341 177.128 80.324 176.901C80.4023 176.702 80.489 176.463 80.4445 176.27C80.3909 176.037 80.4391 175.836 80.4451 175.617C80.451 175.413 80.2221 175.169 80.6152 175.088C80.7213 174.842 80.5165 174.654 80.4883 174.43C80.6869 174.266 80.8118 174.059 80.7686 173.711C80.9165 173.892 80.9943 173.987 81.0732 174.084C81.4109 173.758 81.315 173.325 81.0583 173.152C80.6394 172.87 80.8367 172.539 80.846 172.284C80.6889 172.029 80.3006 172.352 80.2961 171.914C80.7239 171.657 81.1899 171.385 80.9453 170.733C81.3363 170.189 80.9668 169.571 81.1159 168.982C81.2561 168.43 81.0456 167.82 81.2206 167.233C81.3113 166.929 80.9777 166.662 81.0549 166.296C81.1424 165.88 80.9654 165.455 81.0442 164.998C81.0949 164.701 80.9378 164.319 80.968 163.946C80.99 163.674 80.8329 163.387 80.754 163.099C80.8534 163.04 80.9333 162.993 81.037 162.932C80.6465 162.555 80.7915 162.051 80.7591 161.6C80.7239 161.114 80.7564 160.605 80.8697 160.133C80.9519 159.793 80.8777 159.501 80.6678 159.35C80.4529 159.195 80.7155 158.867 80.3963 158.828C80.6855 158.479 80.0955 158.074 80.4728 157.72C80.6467 157.556 80.4517 157.269 80.6325 157.089C80.3677 157.068 80.3723 156.716 80.1234 156.676C80.1663 155.942 80.1663 155.942 80.4168 155.68C80.0727 155.381 79.8307 155.075 80.14 154.553C80.3154 154.258 79.8331 153.864 80.0378 153.47C79.9188 153.415 79.7208 153.323 79.7851 153.22C79.9988 152.877 79.6295 152.572 79.745 152.289C79.8843 151.948 79.6562 151.719 79.6003 151.442C79.539 151.138 79.2556 150.933 79.2902 150.553C79.3205 150.225 78.9938 149.909 79.1765 149.525C79.2684 149.33 78.8325 149.389 78.9408 149.105C79.0151 148.908 78.5692 148.838 78.7595 148.498C78.9018 148.244 78.636 147.943 78.5612 147.662C78.4933 147.406 78.3978 147.157 78.3139 146.904C78.1186 147.003 78.1186 147.003 78.0697 147.089C77.9605 147.073 77.9316 146.989 77.888 146.902C77.7522 146.628 78.0014 146.351 77.8402 146.054C77.7271 145.847 77.5859 145.605 77.6869 145.31C77.7645 145.084 77.401 145.049 77.3916 144.798C77.3842 144.607 77.5458 144.459 77.44 144.24C76.9345 143.201 77.059 141.991 76.5466 140.969C76.6877 140.75 76.7726 140.987 76.8799 140.957C76.8912 140.935 76.9262 140.897 76.9182 140.876C76.503 139.843 76.5494 138.69 76.0915 137.67C75.9753 137.413 76.181 137.078 75.8404 136.867C75.6134 136.726 75.9857 136.336 75.6406 136.184C75.8563 135.834 75.5688 135.556 75.4988 135.25C75.432 134.959 75.3159 134.679 75.2217 134.395C75.1169 134.079 75.0727 133.721 74.8911 133.458C74.6927 133.17 75.2036 132.693 74.6142 132.56C74.8701 132.219 74.5845 131.931 74.5092 131.629C74.4211 131.275 74.2851 130.932 74.17 130.585C74.0653 130.268 73.9291 129.959 73.863 129.635C73.7541 129.103 73.7994 128.539 73.5352 128.041C73.2821 127.563 73.5869 127.029 73.2547 126.593L73.5416 126.498C74.0823 128.344 74.327 130.273 75.1584 132.149Z" fill="#01B880"/>
</svg>
