<svg width="53" height="78" viewBox="0 0 53 78" fill="none" xmlns="http://www.w3.org/2000/svg">
<path d="M48.0101 35.4765C54.6999 24.933 50.9677 13.7108 41.4676 6.4897C31.4426 -1.1091 11.4757 -1.26274 5.79741 16.5147C2.51975 26.8022 7.42345 30.7649 9.59362 42.0831C10.9636 49.2402 8.81262 57.3127 16.3986 60.1614C25.5402 63.5927 28.0561 55.5394 34.9635 48.8625C40.533 43.5234 44.7645 40.5979 48.0101 35.4765Z" fill="#F9ED35"/>
<path d="M32.7927 51.7306C28.7468 47.147 16.6733 40.5277 9.51617 44.3431L10.7965 54.2593L12.4737 57.4153L14.7527 59.3358L17.9536 60.4497L22.9981 60.8018L25.0659 59.9312L29.4446 55.9493L32.7927 51.7306Z" fill="#E88128"/>
<path d="M18.396 36.6483C16.8306 35.6984 15.4677 34.4494 14.385 32.9727C13.3023 31.496 12.5211 29.8206 12.086 28.0419C11.6508 26.2633 11.5703 24.4164 11.8489 22.6067C12.1276 20.7969 12.76 19.0598 13.71 17.4945" stroke="#FDF5A3" stroke-width="3.70658" stroke-miterlimit="10"/>
<path d="M0.368598 59.9758C0.233896 60.1382 0.13264 60.3257 0.0706485 60.5273C0.00865669 60.729 -0.0128587 60.941 0.00737014 61.151C0.0275989 61.361 0.0891655 61.565 0.188512 61.7511C0.287858 61.9373 0.423031 62.1019 0.586253 62.2356C0.914943 62.506 1.3375 62.635 1.76117 62.5942C2.18484 62.5534 2.57501 62.3461 2.84605 62.018L3.48622 61.205C3.75427 60.8748 3.8811 60.4521 3.83914 60.0289C3.79718 59.6058 3.58982 59.2163 3.26215 58.9452C2.93175 58.676 2.50857 58.5479 2.08436 58.5886C1.66015 58.6294 1.26908 58.8357 0.995951 59.1628L0.368598 59.9758Z" fill="#344A48"/>
<path d="M35.3855 41.078C35.6999 41.3642 36.115 41.5142 36.5397 41.495C36.9645 41.4758 37.3643 41.289 37.6517 40.9756C37.7948 40.8201 37.9058 40.638 37.9785 40.4396C38.0511 40.2412 38.0839 40.0304 38.075 39.8194C38.0661 39.6083 38.0156 39.401 37.9265 39.2094C37.8374 39.0179 37.7114 38.8458 37.5556 38.703L36.7746 37.9988C36.6197 37.8555 36.4379 37.7444 36.2397 37.6719C36.0415 37.5994 35.8309 37.5669 35.6201 37.5765C35.4093 37.586 35.2025 37.6373 35.0117 37.7274C34.8208 37.8174 34.6498 37.9445 34.5084 38.1012C34.3651 38.2561 34.254 38.4379 34.1815 38.6361C34.109 38.8343 34.0766 39.0449 34.0861 39.2557C34.0956 39.4665 34.1469 39.6734 34.237 39.8642C34.3271 40.055 34.4542 40.2261 34.6109 40.3674L35.3855 41.078Z" fill="#344A48"/>
<path d="M12.0645 76.5179C12.076 76.7291 12.1708 76.9271 12.3279 77.0686C12.485 77.2102 12.6918 77.2838 12.9031 77.2733H14.8236C14.9279 77.2785 15.0321 77.263 15.1304 77.2278C15.2287 77.1926 15.3191 77.1384 15.3964 77.0683C15.4737 76.9981 15.5364 76.9134 15.5809 76.8189C15.6254 76.7245 15.6509 76.6222 15.6558 76.5179C15.6442 76.3084 15.5502 76.1121 15.3942 75.9717C15.2383 75.8314 15.0331 75.7585 14.8236 75.7689H12.9031C12.6929 75.7584 12.487 75.8311 12.3301 75.9713C12.1731 76.1115 12.0777 76.3079 12.0645 76.5179Z" fill="#344A48"/>
<path d="M25.9112 76.2748C25.8978 76.3774 25.9055 76.4816 25.9338 76.5812C25.9621 76.6807 26.0104 76.7734 26.0756 76.8537C26.1409 76.934 26.2219 77.0001 26.3136 77.0481C26.4053 77.096 26.5058 77.1248 26.609 77.1326L28.5295 77.3951C28.7401 77.4298 28.956 77.3829 29.1332 77.2639C29.3104 77.145 29.4356 76.9629 29.4833 76.7549C29.4948 76.6521 29.4856 76.548 29.4562 76.4488C29.4268 76.3496 29.3778 76.2574 29.3122 76.1774C29.2466 76.0974 29.1656 76.0315 29.074 75.9833C28.9825 75.9352 28.8822 75.9059 28.7791 75.8971L26.8586 75.641C26.6484 75.6032 26.4317 75.6489 26.2548 75.7685C26.0778 75.8881 25.9545 76.072 25.9112 76.2812V76.2748Z" fill="#344A48"/>
<path d="M47.305 35.048L47.5419 34.6383C47.7019 34.363 47.9324 33.9597 48.1821 33.4475C48.9433 31.9545 49.4989 30.3652 49.8337 28.7231C50.0727 27.5665 50.1991 26.3895 50.2114 25.2086C50.2095 23.8297 50.0658 22.4546 49.7825 21.1051C49.4374 19.5777 48.9221 18.0939 48.2461 16.6815C47.4801 15.1068 46.5303 13.6284 45.4165 12.2772C44.1984 10.7965 42.8249 9.4508 41.3195 8.26331L40.7241 7.80238L40.5769 7.68716L40.436 7.58473L40.1095 7.34787C39.7254 7.0854 39.3029 6.81014 38.8676 6.55407C37.9826 6.03096 37.0629 5.56896 36.1149 5.1713C32.0444 3.4865 27.6048 2.89293 23.2347 3.44925C18.6225 3.9856 14.3787 6.23083 11.3404 9.74209C9.81812 11.5643 8.62847 13.6403 7.82584 15.8749C7.40737 17.0079 7.06309 18.1669 6.79518 19.3446C6.51363 20.4992 6.34426 21.6784 6.28944 22.8656C6.24758 25.3007 6.61103 27.7259 7.36492 30.0418C8.0627 32.4745 8.86292 34.9711 9.50949 37.487C9.84238 38.7673 10.1112 40.0093 10.3673 41.2704C10.6245 42.5381 10.7998 43.8211 10.8923 45.1114C11.1035 47.6401 11.1035 50.1111 11.4748 52.4157C11.6324 53.5233 11.9516 54.6017 12.4222 55.6166C12.864 56.5751 13.5213 57.4186 14.3428 58.0812C15.1886 58.7295 16.1421 59.2236 17.1595 59.5408C18.1448 59.8882 19.1758 60.0888 20.2195 60.1362C21.2047 60.16 22.1839 59.9768 23.0939 59.5984C23.9908 59.1994 24.8219 58.6662 25.5585 58.0172C27.005 56.6756 28.3389 55.2175 29.5468 53.6577C30.7823 52.1597 31.9858 50.7065 33.2341 49.3941C34.4825 48.0818 35.7372 46.9615 36.9087 45.8732C39.2453 43.7286 41.313 41.9362 42.9071 40.3742C44.1481 39.1973 45.2814 37.9118 46.2936 36.5332C46.6393 36.0594 46.8825 35.6817 47.049 35.4193L47.2986 35.0352L47.305 35.048ZM48.7006 35.925L48.4317 36.3219C48.2525 36.5908 47.9836 36.9621 47.6059 37.487C46.5283 38.9243 45.3518 40.2848 44.085 41.5585C42.4782 43.2165 40.3976 45.0346 38.0674 47.1408C36.9215 48.2034 35.6668 49.3365 34.4697 50.5785C33.2725 51.8204 32.0946 53.2416 30.8527 54.7395C29.5825 56.3714 28.1777 57.8939 26.6532 59.2911C25.7872 60.0513 24.809 60.6732 23.7532 61.1348C22.6267 61.5941 21.4163 61.8122 20.2003 61.775C18.9871 61.7185 17.7884 61.4878 16.641 61.09C15.448 60.7126 14.3302 60.1299 13.3377 59.368C12.3107 58.5554 11.4849 57.5171 10.9243 56.3336C10.3826 55.1687 10.0056 53.9341 9.80396 52.6654C9.38145 50.1688 9.35584 47.6785 9.11897 45.233C9.01793 44.0146 8.83616 42.8041 8.57485 41.6097C8.31878 40.3934 7.98588 39.1899 7.62098 37.9927C6.88479 35.5921 5.86692 33.2747 4.91947 30.8228C3.85819 28.279 3.2536 25.5681 3.13341 22.8143C3.09806 20.0352 3.60469 17.2759 4.625 14.6906C5.57843 12.0903 6.98268 9.6784 8.7733 7.56553C10.5653 5.47569 12.7515 3.75936 15.207 2.51459C17.5816 1.32043 20.1429 0.54102 22.7802 0.209996C27.7277 -0.403478 32.7491 0.333128 37.312 2.34175C38.383 2.81183 39.4204 3.35513 40.4168 3.96778C40.9098 4.26866 41.3771 4.60794 41.8636 4.93442L42.1837 5.17769L42.3629 5.31214L42.523 5.44016L43.1632 5.95231C44.8164 7.29902 46.3188 8.82082 47.6443 10.4911C50.0319 13.4175 51.6435 16.8984 52.3303 20.6122C52.8179 23.4809 52.6471 26.4229 51.831 29.216C51.3201 30.9812 50.6047 32.6806 49.6993 34.2798C49.3856 34.8495 49.1359 35.24 48.9631 35.4961L48.7134 35.8994L48.7006 35.925Z" fill="#344A48"/>
<path d="M32.7926 51.7173C28.7339 47.3129 17.1021 41.2569 10.0794 44.1057" stroke="#344A48" stroke-width="0.851424" stroke-miterlimit="10"/>
<path d="M30.2325 54.7968C26.5131 50.8854 18.1781 43.8308 9.97116 48.504" stroke="#344A48" stroke-width="0.851424" stroke-miterlimit="10"/>
<path d="M27.1081 58.2346C21.8395 52.87 15.8796 50.6102 10.4637 52.7804" stroke="#344A48" stroke-width="0.851424" stroke-miterlimit="10"/>
<path d="M23.325 60.5905C19.484 56.487 15.515 55.3795 12.0645 56.8903" stroke="#344A48" stroke-width="0.851424" stroke-miterlimit="10"/>
<path d="M10.2783 43.2742L9.70212 43.9143C9.53568 44.1128 9.27961 44.356 9.06195 44.6313L8.31936 45.5532C8.07609 45.9181 7.78802 46.3022 7.51915 46.7247C7.25027 47.1472 6.9686 47.6017 6.73814 48.101C6.50768 48.6004 6.24521 49.1061 6.02115 49.6374C5.79709 50.1688 5.59865 50.7193 5.4258 51.2891C4.81949 53.4132 4.3554 55.5753 4.03663 57.7612C3.72935 59.5921 3.44127 60.834 3.44127 60.834L1.48236 60.3603C1.48236 60.3603 1.77044 59.2144 2.12253 57.4155C2.49066 55.149 3.01036 52.9098 3.67813 50.7129C3.87659 50.1112 4.11345 49.5094 4.35671 48.9332C4.59545 48.3612 4.86692 47.8033 5.16974 47.2624C5.43221 46.7183 5.7651 46.2382 6.05317 45.7644C6.34125 45.2907 6.69334 44.8938 6.94941 44.4841L7.79443 43.4598C8.0505 43.1397 8.27456 42.9413 8.4346 42.7364L9.01714 42.0963L10.2783 43.2742Z" fill="#344A48"/>
<path d="M32.6076 51.3915L33.523 51.5387C33.8175 51.5899 34.1632 51.6347 34.5537 51.6731C34.9442 51.7116 35.3795 51.7692 35.866 51.7948C36.3794 51.8316 36.8943 51.8423 37.4088 51.8268C37.9601 51.8116 38.5087 51.7452 39.0477 51.6283C39.5587 51.541 40.0427 51.3373 40.4624 51.033C40.8117 50.761 41.0413 50.3638 41.1026 49.9255C41.1653 49.3956 41.1129 48.8584 40.949 48.3507C40.7854 47.7903 40.5712 47.2461 40.3088 46.7247C39.8017 45.7602 39.2059 44.8451 38.5291 43.9911C38.0488 43.3793 37.5359 42.7938 36.9927 42.2371C36.6022 41.8338 36.3526 41.5969 36.3526 41.5969L37.7417 40.1245C37.7417 40.1245 38.0106 40.3678 38.4331 40.8159C39.0156 41.426 39.5648 42.0671 40.0783 42.7364C40.8147 43.6973 41.4578 44.7262 41.9988 45.8092C42.32 46.4459 42.5773 47.1128 42.767 47.8001C42.9969 48.5787 43.0516 49.3985 42.9271 50.2008C42.7655 51.0937 42.2714 51.892 41.5443 52.4349C40.9087 52.8931 40.1778 53.2017 39.4061 53.3376C38.7548 53.4697 38.0926 53.5404 37.428 53.5488C36.7879 53.5488 36.2373 53.5488 35.7124 53.4912C35.1874 53.4336 34.7137 53.4016 34.2848 53.3376C33.8559 53.2736 33.4974 53.2288 33.2093 53.1711C32.6268 53.0751 32.3003 53.0111 32.3003 53.0111L32.6076 51.3915Z" fill="#344A48"/>
<path d="M14.4004 58.2028L14.7589 58.9198C14.8614 59.1631 15.0214 59.3999 15.1494 59.7712C15.2775 60.1425 15.4183 60.5586 15.5783 61.0132C15.7384 61.4677 15.796 61.9542 15.9177 62.4727C16.0393 62.9913 16.0585 63.5418 16.1417 64.1052C16.2249 64.6685 16.1929 65.2639 16.2249 65.8656C16.2569 66.4674 16.2249 67.0627 16.1609 67.6645C16.0969 68.2663 16.0649 68.8616 15.9689 69.4442C15.8728 70.0267 15.8024 70.6029 15.6872 71.1534C15.4823 72.2545 15.2135 73.266 14.9766 74.1302C14.7397 74.9945 14.4965 75.6986 14.3364 76.1916C14.2468 76.4412 14.17 76.6397 14.1252 76.7741C14.0804 76.9086 14.0419 76.9854 14.0419 76.9854L12.1599 76.1916C12.1795 76.1324 12.203 76.0747 12.2303 76.0187C12.2751 75.8971 12.3455 75.7179 12.4351 75.4938C12.608 75.0393 12.8384 74.3735 13.0753 73.5733C13.3122 72.7731 13.5874 71.8064 13.7987 70.7758C13.9139 70.2572 14.0035 69.7195 14.0932 69.1753C14.1828 68.6312 14.2276 68.0742 14.298 67.5173C14.3684 66.9603 14.3684 66.4034 14.3941 65.8593C14.4197 65.3151 14.394 64.7774 14.3428 64.2588C14.2916 63.7403 14.266 63.2474 14.17 62.7864C14.074 62.3255 14.0035 61.8838 13.9011 61.5061C13.7987 61.1284 13.6771 60.8019 13.581 60.501C13.477 60.2214 13.3573 59.9478 13.2225 59.6816L12.8832 58.9582L14.4004 58.2028Z" fill="#344A48"/>
<path d="M23.9654 60.0333L24.452 60.5711C24.6056 60.7503 24.7977 60.9424 25.0089 61.2112L25.7067 62.1907C25.9569 62.5768 26.1856 62.9764 26.3917 63.3878C26.6343 63.8346 26.8482 64.2965 27.0318 64.7706C27.2357 65.2709 27.4131 65.7816 27.5632 66.3006C27.736 66.8255 27.8385 67.3696 27.9729 67.9074C28.1073 68.4451 28.1778 69.0021 28.2418 69.5399C28.3058 70.0776 28.3762 70.6089 28.3954 71.1275C28.4146 71.646 28.453 72.1389 28.453 72.6127C28.453 73.0864 28.453 73.5345 28.453 73.9442C28.421 74.77 28.3698 75.455 28.3122 75.9415C28.2802 76.1848 28.2546 76.3832 28.2418 76.5113C28.229 76.6393 28.2097 76.7289 28.2097 76.7289L26.0524 76.3256V76.1656C26.0524 76.0504 26.078 75.8839 26.1292 75.6662C26.1932 75.2373 26.2636 74.6036 26.3149 73.8418C26.3149 73.4577 26.3661 73.048 26.3661 72.6062C26.3661 72.1645 26.3661 71.71 26.3661 71.2363C26.3661 70.7626 26.302 70.2696 26.2636 69.7703C26.2252 69.271 26.1356 68.778 26.0652 68.2723C25.9948 67.7666 25.8731 67.2865 25.7387 66.8127C25.6176 66.3467 25.4723 65.8873 25.3034 65.4363C25.1537 65.0142 24.9784 64.6016 24.7785 64.2008C24.6141 63.842 24.4281 63.4936 24.2215 63.1574L23.6966 62.3507C23.5173 62.1011 23.3125 61.8898 23.1652 61.7106L22.6979 61.16L23.9654 60.0333Z" fill="#344A48"/>
<path d="M20.1178 38.4405C20.2202 37.3586 22.4928 37.7299 23.1202 38.0051C24.8486 38.7541 26.4939 39.6888 27.3261 41.4556C27.9663 42.7744 29.8868 41.6221 29.2466 40.3161C28.1199 37.9155 25.348 36.0654 22.7617 35.5917C20.5403 35.1884 18.0693 35.9246 17.8324 38.4405C17.6916 39.8872 19.9514 39.8744 20.0922 38.4405H20.1178Z" fill="#F9ED35"/>
<path d="M23.3563 32.878C26.5251 29.946 30.8207 32.0329 31.5697 35.9828C31.7041 36.6934 32.7924 36.3925 32.658 35.6819C31.7361 30.8423 26.3011 28.6401 22.5625 32.0778C22.0247 32.5707 22.825 33.3581 23.3563 32.878Z" fill="#344A48"/>
<path d="M35.7119 31.3733C35.5526 31.6678 35.515 32.013 35.6071 32.3349C35.6993 32.6568 35.9138 32.9298 36.2048 33.0954C36.4987 33.2527 36.8424 33.2892 37.1628 33.1972C37.4831 33.1051 37.755 32.8918 37.9205 32.6024L39.6362 29.5296C39.7955 29.2351 39.8331 28.8899 39.741 28.568C39.6488 28.2461 39.4343 27.9732 39.1432 27.8076C38.8494 27.6502 38.5057 27.6137 38.1853 27.7057C37.865 27.7978 37.5931 28.0112 37.4276 28.3005L35.7119 31.3733Z" fill="#344A48"/>
<path d="M22.3259 24.92C22.2025 25.2311 22.2057 25.5781 22.3349 25.8868C22.4641 26.1955 22.7091 26.4413 23.0173 26.5717C23.3268 26.6936 23.6716 26.6902 23.9787 26.5624C24.2857 26.4345 24.531 26.1922 24.6625 25.8867L26.0069 22.6346C26.1308 22.3244 26.1285 21.978 26.0005 21.6694C25.8725 21.3609 25.629 21.1145 25.3219 20.983C25.0117 20.8591 24.6653 20.8614 24.3567 20.9894C24.0481 21.1174 23.8018 21.3609 23.6703 21.668L22.3259 24.92Z" fill="#344A48"/>
<path d="M20.8151 18.442C21.961 17.0464 24.0608 17.1937 25.6996 17.0208C26.0581 16.9824 26.0581 16.4191 25.6996 16.4575C23.9135 16.6495 21.6665 16.5215 20.4182 18.0451C20.1878 18.3204 20.5847 18.7237 20.8151 18.442Z" fill="#344A48"/>
<path d="M40.981 24.2224C42.1269 24.9073 43.3496 25.842 43.7721 27.1607C43.8809 27.5064 44.4123 27.3592 44.3162 27.0135C43.8425 25.5411 42.5494 24.4977 41.269 23.7359C41.2045 23.6977 41.1275 23.6866 41.0548 23.7052C40.9822 23.7238 40.9199 23.7706 40.8817 23.8351C40.8435 23.8996 40.8325 23.9766 40.8511 24.0493C40.8697 24.1219 40.9164 24.1842 40.981 24.2224Z" fill="#344A48"/>
<path d="M37.1712 33.5754C37.0816 34.8942 35.9485 39.9771 39.1493 38.844C42.3502 37.7109 38.0227 34.4268 37.3633 33.2937" fill="#55A4DB"/>
<path d="M36.8903 33.5754C36.7495 35.2655 35.7765 39.6954 38.8108 39.2409C40.0912 39.0425 41.0514 37.9606 40.4625 36.6802C39.8223 35.2591 38.4524 34.4268 37.6329 33.1465C37.4345 32.8392 36.948 33.1465 37.1464 33.4282C38.0106 34.7853 42.1525 37.8581 38.6636 38.6903C36.4294 39.2217 37.3833 34.6637 37.4857 33.569C37.4857 33.2105 36.948 33.2105 36.916 33.569L36.8903 33.5754Z" fill="#55A4DB"/>
</svg>
